<svg xmlns="http://www.w3.org/2000/svg" viewBox="0 0 240 360" role="img" aria-label="ornate tarot card back"><defs><radialGradient id="bg" cx="50%" cy="45%" r="72%"><stop offset="0" stop-color="#29346b"/><stop offset="0.48" stop-color="#121b42"/><stop offset="1" stop-color="#070d24"/></radialGradient><radialGradient id="glow" cx="50%" cy="50%" r="45%"><stop offset="0" stop-color="#fff2ad" stop-opacity="0.95"/><stop offset="0.2" stop-color="#e2aa52" stop-opacity="0.55"/><stop offset="0.75" stop-color="#7aa8ff" stop-opacity="0.08"/><stop offset="1" stop-color="#000" stop-opacity="0"/></radialGradient><linearGradient id="gold" x1="0" y1="0" x2="1" y2="1"><stop offset="0" stop-color="#fff1b8"/><stop offset="0.45" stop-color="#c99445"/><stop offset="1" stop-color="#ffe7a0"/></linearGradient><filter id="soft"><feGaussianBlur stdDeviation="1.4"/></filter><pattern id="stars" width="38" height="38" patternUnits="userSpaceOnUse"><circle cx="7" cy="9" r="1" fill="#efd58b" opacity="0.7"/><circle cx="30" cy="18" r="0.8" fill="#fff4d0" opacity="0.45"/><path d="M19 30 l2 0 l-1 1.8 l-1 -1.8z" fill="#efd58b" opacity="0.55"/></pattern></defs><rect width="240" height="360" rx="18" fill="url(#bg)"/><rect width="240" height="360" rx="18" fill="url(#stars)" opacity="0.9"/><path d="M34 70 C54 44 75 42 98 55 M206 70 C186 44 165 42 142 55 M34 290 C54 316 75 318 98 305 M206 290 C186 316 165 318 142 305" fill="none" stroke="#6f4fa6" stroke-width="8" opacity="0.28"/><rect x="8" y="8" width="224" height="344" rx="14" fill="none" stroke="url(#gold)" stroke-width="3"/><rect x="16" y="16" width="208" height="328" rx="11" fill="none" stroke="#efd58b" stroke-opacity="0.58" stroke-width="1.4"/><rect x="25" y="25" width="190" height="310" rx="8" fill="none" stroke="#efd58b" stroke-opacity="0.3"/><circle cx="120" cy="180" r="58" fill="none" stroke="url(#gold)" stroke-width="1.6"/><circle cx="120" cy="180" r="78" fill="none" stroke="#efd58b" stroke-opacity="0.36" stroke-dasharray="2 6"/><path d="M120 72 L176 180 L120 288 L64 180 Z" fill="none" stroke="url(#gold)" stroke-width="2.4"/><path d="M120 100 L148 180 L120 260 L92 180 Z" fill="none" stroke="#efd58b" stroke-opacity="0.46"/><circle cx="120" cy="180" r="34" fill="url(#glow)" opacity="0.8"/><path d="M120 135 L128 172 L165 180 L128 188 L120 225 L112 188 L75 180 L112 172 Z" fill="url(#gold)"/><path d="M120 150 L124 176 L150 180 L124 184 L120 210 L116 184 L90 180 L116 176 Z" fill="#fff4c6" opacity="0.92"/><g fill="none" stroke="url(#gold)" stroke-width="1.7" opacity="0.95"><path d="M32 32 C56 34 54 54 42 58 C59 59 64 48 68 34"/><path d="M208 32 C184 34 186 54 198 58 C181 59 176 48 172 34"/><path d="M32 328 C56 326 54 306 42 302 C59 301 64 312 68 326"/><path d="M208 328 C184 326 186 306 198 302 C181 301 176 312 172 326"/></g><g fill="#efd58b"><path d="M120 40 l4 12 l12 4 l-12 4 l-4 12 l-4 -12 l-12 -4 l12 -4z"/><path d="M120 288 l4 12 l12 4 l-12 4 l-4 12 l-4 -12 l-12 -4 l12 -4z"/><path d="M44 180 l3 8 l8 3 l-8 3 l-3 8 l-3 -8 l-8 -3 l8 -3z"/><path d="M196 180 l3 8 l8 3 l-8 3 l-3 8 l-3 -8 l-8 -3 l8 -3z"/><circle cx="70" cy="110" r="2"/><circle cx="170" cy="110" r="2"/><circle cx="70" cy="250" r="2"/><circle cx="170" cy="250" r="2"/></g><path d="M120 80 a18 18 0 1 0 0 -1 a12 12 0 1 1 0 24 a18 18 0 0 0 0 -23" fill="#efd58b" opacity="0.9"/><path d="M120 280 a18 18 0 1 0 0 -1 a12 12 0 1 1 0 24 a18 18 0 0 0 0 -23" fill="#efd58b" opacity="0.75" transform="rotate(180 120 290)"/><rect x="0" y="0" width="240" height="360" rx="18" fill="none" stroke="#050816" stroke-width="8" opacity="0.65"/></svg>